<svg width="24" height="24" viewBox="0 0 24 24" fill="none" xmlns="http://www.w3.org/2000/svg">
<path fill-rule="evenodd" clip-rule="evenodd" d="M5.47689 2.07301C4.98789 2.20101 4.54589 2.54301 4.26489 3.01401C3.98189 3.48501 3.99989 2.89101 4.00189 12.028C4.00389 19.676 4.00889 20.279 4.07289 20.523C4.20289 21.022 4.59889 21.516 5.07089 21.772C5.50489 22.007 5.26089 21.999 11.9999 21.999C18.7359 21.999 18.4919 22.007 18.9309 21.772C19.1989 21.629 19.6289 21.199 19.7719 20.931C20.0059 20.493 19.9989 20.716 19.9989 14.217C19.9999 10.089 19.9869 8.18201 19.9559 8.01901C19.9184 7.84778 19.8624 7.68114 19.7889 7.52201C19.6759 7.28201 19.4609 7.05601 17.2029 4.79701C14.9439 2.53901 14.7179 2.32401 14.4779 2.21101C14.3188 2.13752 14.1521 2.08152 13.9809 2.04401C13.8209 2.01401 12.4649 2.00101 9.74289 2.00201C6.09189 2.00401 5.71689 2.01101 5.47689 2.07301ZM12.0079 6.43001L12.0199 8.86001L12.1319 9.10001C12.2789 9.41501 12.5869 9.72401 12.8959 9.86701L13.1399 9.98001L15.5699 9.99201L17.9999 10.003V20H5.99989V4.00001H11.9969L12.0079 6.43001ZM15.7999 6.22001L17.5799 8.00001H13.9999V6.22001C13.9999 5.24101 14.0049 4.44001 14.0099 4.44001C14.0159 4.44001 14.8209 5.24101 15.7999 6.22001ZM14.0599 12.395C13.9842 12.4156 13.9106 12.4431 13.8399 12.477C13.7849 12.505 13.1509 13.115 12.4309 13.833L11.1219 15.137L10.6879 14.71C10.2019 14.23 10.0589 14.15 9.69189 14.15C9.28989 14.15 8.98389 14.342 8.81489 14.7C8.75438 14.835 8.7221 14.9809 8.72003 15.1288C8.71797 15.2767 8.74617 15.4234 8.80289 15.56C8.92389 15.826 10.4299 17.325 10.6949 17.442C10.9479 17.554 11.2879 17.556 11.5249 17.448C11.7909 17.328 15.1719 13.92 15.2399 13.704C15.3069 13.495 15.2729 13.049 15.1789 12.898C15.0767 12.7224 14.9297 12.5771 14.7529 12.477C14.5849 12.39 14.2359 12.349 14.0599 12.395Z" fill="#10161F"/>
</svg>
