<svg width="222" height="220" viewBox="0 0 222 220" fill="none" xmlns="http://www.w3.org/2000/svg">
<path d="M217.694 161.977L179.418 181.107L168.012 161.67L177.179 157.079L206.288 142.54L217.694 161.977Z" fill="#36FF3D" stroke="black"/>
<path d="M217.694 161.977L178.078 184.55L139.802 203.68L176.911 182.542L179.418 181.107L217.694 161.977Z" stroke="black"/>
<path d="M179.418 181.107L176.911 182.542L139.802 203.68L133.601 193.045L132.97 191.991L116.99 164.578L128.396 158.303L139.802 177.74L148.74 172.651L165.543 163.067L168.011 161.67L179.418 181.107Z" fill="#079600" stroke="black"/>
<path d="M177.179 157.079L168.012 161.67L165.543 163.067L148.74 172.651L139.802 177.74L128.396 158.303L141.161 151.914L166.672 139.173L177.179 157.079Z" fill="#36FF3D" stroke="black"/>
<path d="M132.97 191.991L133.601 193.045L116.186 201.748C111.133 194.095 107.191 185.66 104.397 176.458C102.885 171.503 101.775 166.816 101.086 162.416C100.493 158.629 100.187 155.051 100.187 151.665C100.187 135.902 104.913 125.514 114.387 120.502C122.195 116.369 130.654 116.159 139.725 119.889C138.883 123.62 138.462 127.848 138.462 132.535C138.462 138.408 139.362 144.855 141.161 151.914L128.396 158.303L116.989 164.578L132.97 191.991Z" fill="#FF9696" stroke="black"/>
<path d="M163.017 135.596C160.357 132.841 157.543 130.45 154.615 128.441C151.668 126.451 148.683 124.557 145.601 122.797C143.611 121.65 141.659 120.674 139.726 119.89C130.655 116.159 122.196 116.37 114.387 120.502C104.914 125.514 100.187 135.902 100.187 151.665C100.187 155.052 100.493 158.629 101.086 162.417C101.775 166.817 102.885 171.503 104.397 176.458C107.191 185.66 111.134 194.096 116.186 201.748C113.66 202.896 110.368 204.311 106.292 206.014C102.216 207.736 98.7133 209.268 95.7852 210.626L84.1876 215.868L58.7726 175.043C49.1654 159.547 40.9359 145.926 34.0654 134.161C27.1949 122.396 21.5109 111.778 17.0518 102.309C12.5735 92.8391 9.32007 84.307 7.25318 76.6739C5.18628 69.06 4.15283 61.7331 4.15283 54.6931C4.15283 40.307 8.34396 30.7609 16.7455 26.0548L18.4871 25.175C25.3576 22.0759 33.5297 22.7261 43.003 27.1452C44.6871 27.9296 46.4093 28.8287 48.17 29.8426C55.098 33.8409 61.7006 39.2933 67.9778 46.1993C74.2359 53.1054 79.6519 60.9298 84.1876 69.6724C85.1828 68.9072 86.2354 68.2183 87.3262 67.6252L87.4411 67.5678C87.8621 67.3383 88.2833 67.1278 88.7235 66.9365C92.2066 65.3487 96.0916 64.6793 100.379 64.9089C106.656 65.2341 113.258 67.3957 120.205 71.4131C131.535 77.9557 141.047 87.3679 148.702 99.6879C149.314 100.683 149.926 101.678 150.501 102.672C157.122 113.921 161.294 124.902 163.017 135.596Z" fill="#FF9696" stroke="black"/>
<path d="M122.253 50.1592L88.7236 66.9365C88.2834 67.1278 87.8624 67.3381 87.4413 67.5677L87.3263 67.6252C86.2355 68.2183 85.1829 68.907 84.1877 69.6722C79.652 60.9296 74.236 53.1052 67.9779 46.1992C61.7006 39.2931 55.0982 33.8409 48.1703 29.8426C46.4096 28.8287 44.6872 27.9294 43.0031 27.1451C33.5298 22.7259 25.3579 22.0757 18.4873 25.1748L55.0215 6.92433C63.423 2.19912 73.8917 3.46169 86.4462 10.7121C93.3741 14.7104 99.9765 20.1626 106.254 27.0687C112.416 33.8792 117.775 41.5696 122.253 50.1592Z" fill="#FD1515" stroke="black"/>
<path d="M201.293 116.465L163.017 135.596C161.295 124.902 157.123 113.921 150.501 102.672C149.927 101.677 149.315 100.683 148.702 99.6877C141.047 87.3677 131.535 77.9554 120.206 71.4128C113.259 67.3954 106.656 65.2338 100.379 64.9086C96.092 64.6791 92.2072 65.3486 88.7241 66.9364L122.253 50.1589L125.718 48.4371L126.234 48.1695C129.89 46.333 134.043 45.5486 138.655 45.7782C144.932 46.1034 151.535 48.2649 158.482 52.2823C169.811 58.8249 179.323 68.2373 186.978 80.5573C194.652 92.8582 199.417 104.834 201.293 116.465Z" fill="#FD1515" stroke="black"/>
</svg>
