<svg width="220" height="220" viewBox="0 0 220 220" fill="none" xmlns="http://www.w3.org/2000/svg">
<path d="M152.934 108.797L139.923 101.286L92.5375 73.9234L79.5266 51.4937L61.875 41.3015L27.5 21.45V140.852L157.575 215.961V111.478L152.934 108.797ZM131.553 156.166L119.402 149.136L118.559 148.655V163.573L105.548 156.062V141.144L92.5375 133.633V118.714L105.548 126.208V111.289L118.559 118.8V133.719L119.419 134.217L131.553 141.23V156.166Z" fill="#EDF1FF" stroke="black" stroke-width="1.584" stroke-linecap="round" stroke-linejoin="round"/>
<path d="M118.56 118.8V119.711L105.549 126.208V111.289L118.56 118.8Z" fill="#4671FF" stroke="black" stroke-width="0.4125" stroke-linecap="round" stroke-linejoin="round"/>
<path d="M119.418 134.217L105.548 141.144L92.5371 133.633V118.714L105.548 126.208L118.559 119.711V133.719L119.418 134.217Z" fill="#EDF1FF" stroke="black" stroke-width="1.584" stroke-linecap="round" stroke-linejoin="round"/>
<path d="M131.554 141.23V142.158L118.56 148.655V149.566L112.218 152.728L105.549 156.063V141.144L119.419 134.217L131.554 141.23Z" fill="#4671FF" stroke="black" stroke-width="0.4125" stroke-linecap="round" stroke-linejoin="round"/>
<path d="M131.553 142.158V156.166L119.402 149.136L118.56 148.655L131.553 142.158Z" fill="#EDF1FF" stroke="black" stroke-width="1.584" stroke-linecap="round" stroke-linejoin="round"/>
<path d="M191.95 94.2905V198.773L157.575 215.961V111.478L191.95 94.2905Z" fill="#4671FF" stroke="black" stroke-width="1.584" stroke-linecap="round" stroke-linejoin="round"/>
<path d="M191.95 94.2905L157.575 111.478L152.934 108.797L139.923 101.286L92.5371 73.9233L126.912 56.7358L191.95 94.2905Z" fill="#4671FF" stroke="black" stroke-width="1.584" stroke-linecap="round" stroke-linejoin="round"/>
<path d="M126.912 56.7358L92.5373 73.9233L79.5264 51.4937L113.901 34.3062L126.912 56.7358Z" fill="#4671FF" stroke="black" stroke-width="1.584" stroke-linecap="round" stroke-linejoin="round"/>
<path d="M113.902 34.3062L79.5266 51.4937L61.875 41.3015L27.5 21.45L61.875 4.26245L113.902 34.3062Z" fill="#4671FF" stroke="black" stroke-width="1.584" stroke-linecap="round" stroke-linejoin="round"/>
<path d="M118.56 149.566V163.573L105.549 156.063L112.218 152.728L118.56 149.566Z" fill="#4671FF" stroke="black" stroke-width="1.584" stroke-linecap="round" stroke-linejoin="round"/>
</svg>
