<svg width="24" height="24" viewBox="0 0 24 24" fill="none" xmlns="http://www.w3.org/2000/svg">
<path fill-rule="evenodd" clip-rule="evenodd" d="M10.002 2.04097C8.79502 2.20897 7.75102 3.03297 7.28302 4.18697C7.09902 4.63897 7.06002 4.85897 7.06002 5.44697V5.99297L5.76002 6.00897C4.51502 6.02497 4.44602 6.02897 4.13902 6.12397C3.65885 6.27431 3.22293 6.54021 2.86951 6.89833C2.5161 7.25646 2.25599 7.69586 2.11202 8.17797C2.02302 8.48997 2.02002 8.54997 2.02002 10.08C2.02002 11.847 2.02102 11.851 2.29002 12.121C2.66502 12.495 3.03002 12.551 3.63102 12.325C3.86602 12.236 4.03202 12.2 4.20002 12.2C5.01002 12.2 5.62902 12.956 5.46602 13.746C5.34002 14.358 4.88502 14.751 4.26002 14.79C4.02102 14.805 3.93202 14.79 3.64802 14.686C3.23402 14.534 3.01902 14.501 2.81102 14.557C2.56102 14.624 2.27702 14.837 2.14102 15.057L2.02002 15.254V17.377C2.02002 19.473 2.02102 19.504 2.11202 19.822C2.25844 20.3105 2.52385 20.7549 2.88445 21.1155C3.24504 21.4761 3.68953 21.7416 4.17802 21.888C4.49602 21.979 4.52802 21.98 6.58002 21.98C8.19102 21.98 8.69302 21.968 8.80802 21.928C8.99902 21.86 9.27102 21.588 9.37402 21.36C9.49502 21.095 9.47902 20.812 9.32102 20.369C9.20702 20.05 9.19202 19.964 9.20902 19.73C9.25302 19.11 9.64702 18.659 10.254 18.534C11.022 18.376 11.734 18.926 11.791 19.722C11.808 19.966 11.794 20.046 11.677 20.37C11.457 20.979 11.512 21.345 11.876 21.708C12.15 21.98 12.151 21.98 13.92 21.98C15.45 21.98 15.51 21.977 15.822 21.888C16.3041 21.744 16.7435 21.4839 17.1017 21.1305C17.4598 20.7771 17.7257 20.3411 17.876 19.861C17.971 19.554 17.975 19.485 17.991 18.24L18.007 16.94L18.553 16.939C19.141 16.939 19.363 16.899 19.813 16.717C20.3148 16.513 20.7629 16.196 21.1222 15.7907C21.4816 15.3854 21.7426 14.9026 21.885 14.38C22.006 13.925 22.006 13.075 21.885 12.62C21.7426 12.0973 21.4816 11.6146 21.1222 11.2092C20.7629 10.8039 20.3148 10.4869 19.813 10.283C19.364 10.101 19.141 10.061 18.554 10.061L18.009 10.06L17.99 9.25997C17.974 8.56197 17.959 8.41897 17.874 8.13897C17.7276 7.66499 17.4677 7.2339 17.1169 6.88311C16.7661 6.53232 16.335 6.27243 15.861 6.12597C15.581 6.04097 15.438 6.02597 14.74 6.00997L13.94 5.99097V5.44597C13.94 4.85897 13.901 4.63897 13.717 4.18697C13.305 3.17197 12.411 2.37897 11.388 2.12097C10.9329 2.02285 10.4654 1.99586 10.002 2.04097ZM11.135 4.15397C11.428 4.29897 11.697 4.56997 11.844 4.86897C11.924 5.02997 11.938 5.12197 11.939 5.45997C11.94 5.85497 11.938 5.86497 11.75 6.26297C11.584 6.61297 11.56 6.69797 11.56 6.92297C11.561 7.25097 11.685 7.52997 11.923 7.73297C12.216 7.98397 12.326 7.99997 13.837 8.00197C15.281 8.00397 15.351 8.01197 15.619 8.21697C15.696 8.27497 15.808 8.40797 15.869 8.51097L15.98 8.69997L16 10.2C16.019 11.642 16.023 11.706 16.106 11.86C16.304 12.226 16.657 12.438 17.072 12.439C17.287 12.44 17.381 12.413 17.727 12.255C17.949 12.153 18.222 12.058 18.335 12.044C18.6424 12.0054 18.9541 12.0646 19.2258 12.2133C19.4976 12.3619 19.7157 12.5924 19.849 12.872C19.968 13.113 19.98 13.172 19.98 13.5C19.98 13.828 19.968 13.887 19.849 14.128C19.701 14.428 19.433 14.696 19.131 14.844C18.97 14.924 18.878 14.938 18.54 14.939C18.146 14.94 18.134 14.937 17.732 14.75C17.38 14.586 17.288 14.56 17.072 14.56C16.9194 14.5573 16.768 14.5885 16.6288 14.6512C16.4896 14.714 16.3661 14.8068 16.267 14.923C16.006 15.228 16 15.277 15.998 17.337C15.997 18.772 15.985 19.213 15.943 19.33C15.8592 19.5571 15.6986 19.7477 15.489 19.869C15.303 19.978 15.287 19.98 14.55 19.993L13.8 20.006V19.747C13.8 18.349 12.831 17.071 11.439 16.634C11.177 16.552 11.06 16.54 10.5 16.54C9.94102 16.54 9.82202 16.552 9.56002 16.634C8.76302 16.882 8.03302 17.456 7.63802 18.144C7.37702 18.598 7.20002 19.245 7.20002 19.744V20L6.01002 19.998C4.73002 19.996 4.64502 19.985 4.38102 19.783C4.28244 19.699 4.19803 19.5998 4.13102 19.489L4.02002 19.3L4.00802 18.05L3.99602 16.8L4.26802 16.799C4.60802 16.798 5.15302 16.68 5.51202 16.529C6.48702 16.119 7.25602 15.148 7.44102 14.095C7.51402 13.681 7.47302 12.898 7.36002 12.54C7.11502 11.76 6.53602 11.029 5.85602 10.638C5.40202 10.377 4.75502 10.2 4.25602 10.2H4.00002L4.00202 9.50997C4.00402 8.76597 4.03102 8.62497 4.21702 8.38097C4.27502 8.30397 4.40802 8.19197 4.51102 8.13097L4.70002 8.01997L6.70002 7.99997C8.65502 7.97997 8.70402 7.97797 8.86002 7.89397C9.38002 7.61197 9.57702 7.03497 9.34202 6.47997C9.00902 5.69497 9.03002 5.76997 9.04902 5.40297C9.06902 5.00597 9.15802 4.78497 9.40802 4.50097C9.71302 4.15297 10.094 3.99397 10.567 4.01397C10.816 4.02397 10.925 4.05097 11.135 4.15397Z" fill="#10161F"/>
</svg>
