<svg width="24" height="24" viewBox="0 0 24 24" fill="none" xmlns="http://www.w3.org/2000/svg">
<path fill-rule="evenodd" clip-rule="evenodd" d="M15.6732 2.06298C15.4292 2.13798 15.1502 2.41398 15.0642 2.66598C14.9702 2.94298 14.9702 5.05698 15.0642 5.33398C15.1882 5.69698 15.6132 5.99998 16.0002 5.99998C16.2372 5.99998 16.5142 5.87998 16.6972 5.69698C16.9802 5.41398 17.0002 5.30298 17.0002 3.99998C17.0002 2.69698 16.9802 2.58598 16.6972 2.30298C16.4182 2.02398 16.0672 1.94198 15.6732 2.06298ZM7.63118 2.64298C4.98118 2.86198 2.85618 5.00198 2.64618 7.66098C2.5369 8.98448 2.90826 10.303 3.69218 11.375C4.04718 11.857 6.36418 14.175 6.61718 14.301C6.78696 14.3868 6.97839 14.4203 7.16724 14.3974C7.35609 14.3744 7.5339 14.296 7.67818 14.172C8.01618 13.883 8.13418 13.391 7.95818 13.002C7.89918 12.874 7.52318 12.467 6.60618 11.542C5.15018 10.073 5.01418 9.89598 4.78918 9.17998C4.49618 8.24998 4.56418 7.40698 4.99918 6.53998C5.32818 5.86995 5.87015 5.32798 6.54018 4.99898C7.11318 4.71098 7.46018 4.62798 8.10018 4.62698C8.63318 4.62498 8.87418 4.66698 9.35318 4.84298C9.94418 5.05998 10.1512 5.22698 11.5602 6.62098C13.0152 8.06198 13.0252 8.06798 13.4932 8.03098C13.6538 8.01957 13.8091 7.96878 13.9454 7.88309C14.0817 7.79739 14.1947 7.67944 14.2746 7.53966C14.3545 7.39988 14.3987 7.24257 14.4033 7.08164C14.408 6.92072 14.3729 6.76113 14.3012 6.61698C14.2272 6.46898 13.8792 6.09698 12.9512 5.17598C11.4932 3.72898 11.2812 3.55398 10.5452 3.18998C9.91877 2.87589 9.23625 2.68928 8.53718 2.64098C8.37179 2.62564 8.20608 2.61397 8.04018 2.60598C8.02918 2.60898 7.84518 2.62598 7.63118 2.64298ZM18.6732 6.06298C18.3102 6.17498 18.0002 6.60598 18.0002 6.99998C18.0002 7.40498 18.3092 7.82598 18.6902 7.93898C18.9742 8.02398 20.0262 8.02398 20.3102 7.93898C20.6882 7.82698 21.0002 7.40198 21.0002 6.99998C21.0002 6.59798 20.6882 6.17298 20.3102 6.06098C20.0352 5.97898 18.9412 5.98098 18.6732 6.06298ZM9.55018 8.93498C9.03118 9.12798 8.76818 9.67498 8.94018 10.205C9.00518 10.408 9.13518 10.546 11.2952 12.705C13.4542 14.865 13.5922 14.995 13.7952 15.06C14.6882 15.349 15.4722 14.362 14.9602 13.594C14.7972 13.349 10.4902 9.06398 10.3222 8.97898C10.1382 8.88598 9.74118 8.86298 9.55018 8.93498ZM16.5382 9.67498C16.3372 9.76598 16.0542 10.082 16.0012 10.275C15.9372 10.505 15.9542 10.803 16.0432 10.999C16.1022 11.129 16.4732 11.53 17.3952 12.459C18.8122 13.887 18.9672 14.085 19.1952 14.75C19.5062 15.663 19.4412 16.575 19.0002 17.46C18.6727 18.1305 18.1307 18.6725 17.4602 19C16.5902 19.434 15.7422 19.502 14.8232 19.213C14.1032 18.986 13.9282 18.851 12.4582 17.394C11.0852 16.033 10.9942 15.962 10.6202 15.961C10.3222 15.96 10.1512 16.022 9.93918 16.209C9.69718 16.422 9.60218 16.629 9.60118 16.942C9.59918 17.368 9.66018 17.446 11.0702 18.844C11.7682 19.536 12.4662 20.195 12.6212 20.308C13.3214 20.8034 14.1202 21.1421 14.9632 21.301C15.4022 21.377 16.2852 21.387 16.7002 21.321C19.2522 20.912 21.1542 18.876 21.3542 16.339C21.4634 15.0155 21.0921 13.6969 20.3082 12.625C19.9532 12.143 17.6362 9.82498 17.3832 9.69898C17.2513 9.63786 17.1084 9.60421 16.9631 9.60008C16.8179 9.59596 16.6733 9.62144 16.5382 9.67498ZM3.67318 16.063C3.31018 16.175 3.00018 16.606 3.00018 17C3.00018 17.405 3.30918 17.826 3.69018 17.939C3.97418 18.024 5.02618 18.024 5.31018 17.939C5.68818 17.827 6.00018 17.402 6.00018 17C6.00018 16.598 5.68818 16.173 5.31018 16.061C5.03518 15.979 3.94118 15.981 3.67318 16.063ZM7.67318 18.063C7.42918 18.138 7.15018 18.414 7.06418 18.666C6.97018 18.943 6.97018 21.057 7.06418 21.334C7.18818 21.697 7.61318 22 8.00018 22C8.23718 22 8.51417 21.88 8.69718 21.697C8.98018 21.414 9.00018 21.303 9.00018 20C9.00018 18.697 8.98018 18.586 8.69718 18.303C8.41818 18.024 8.06718 17.942 7.67318 18.063Z" fill="#10161F"/>
</svg>
