<svg width="24" height="24" viewBox="0 0 24 24" fill="none" xmlns="http://www.w3.org/2000/svg">
<path fill-rule="evenodd" clip-rule="evenodd" d="M10.4002 2.04401C8.39123 2.27101 6.67223 3.77801 6.16123 5.76001C5.92023 6.69301 5.98323 7.87501 6.32023 8.75201C6.57465 9.4101 6.96247 10.0084 7.45931 10.5094C7.95615 11.0104 8.55126 11.4031 9.20723 11.663C10.2982 12.093 11.7022 12.093 12.7932 11.663C14.1352 11.135 15.2232 10.022 15.6992 8.68801C16.0962 7.57601 16.0822 6.27201 15.6632 5.20701C15.0732 3.70601 13.7782 2.55401 12.2402 2.16201C11.6387 2.01387 11.0157 1.97392 10.4002 2.04401ZM11.8602 4.12101C12.338 4.27099 12.7721 4.53499 13.1251 4.89023C13.4781 5.24546 13.7393 5.68126 13.8862 6.16001C14.0212 6.59401 14.0212 7.40601 13.8862 7.84001C13.7384 8.32229 13.4746 8.76098 13.1179 9.11766C12.7612 9.47435 12.3225 9.73817 11.8402 9.88601C11.4062 10.021 10.5942 10.021 10.1602 9.88601C9.57023 9.70201 9.10723 9.39101 8.67923 8.89101C8.42255 8.58195 8.23044 8.22458 8.11423 7.84001C7.97923 7.40601 7.97923 6.59401 8.11423 6.16001C8.45523 5.06601 9.37323 4.23901 10.4712 4.03901C10.7972 3.97901 11.5462 4.02301 11.8602 4.12101ZM10.3602 13.027C7.59023 13.177 4.96423 14.227 3.32823 15.837C2.09523 17.05 1.70123 18.422 2.25423 19.579C3.02323 21.189 5.68923 21.959 10.5602 21.975C11.9032 21.98 11.9442 21.978 12.1002 21.894C12.4612 21.698 12.6522 21.389 12.6522 20.999C12.6522 20.695 12.5722 20.495 12.3722 20.295C12.0962 20.019 12.1352 20.025 10.4802 19.995C8.42123 19.957 7.18823 19.852 6.09123 19.621C4.89223 19.368 4.08923 18.962 4.01623 18.574C3.87623 17.827 5.32623 16.494 7.05523 15.78C8.44423 15.206 9.73523 14.982 11.5212 15.006L12.5452 15.02L12.7412 14.899C12.9237 14.7819 13.0631 14.6086 13.1384 14.4053C13.2136 14.202 13.2206 13.9797 13.1582 13.772C13.0872 13.519 12.7662 13.185 12.5362 13.124C12.1812 13.03 11.1522 12.984 10.3602 13.027ZM16.8732 14.06C15.5022 14.32 14.4342 15.336 14.0922 16.707C13.9922 17.11 14.0012 17.961 14.1112 18.364C14.2705 18.9708 14.5883 19.5243 15.032 19.9679C15.4757 20.4114 16.0294 20.7289 16.6362 20.888C16.8632 20.949 17.0722 20.971 17.4602 20.974C18.0542 20.978 18.3082 20.933 18.8142 20.733L19.1682 20.593L19.6342 21.051C20.1782 21.587 20.3432 21.685 20.6982 21.687C21.2862 21.691 21.6912 21.284 21.6872 20.695C21.6852 20.344 21.5852 20.176 21.0512 19.634L20.5932 19.168L20.7332 18.814C20.9332 18.308 20.9782 18.054 20.9742 17.46C20.9692 16.85 20.8882 16.487 20.6432 15.982C20.4215 15.5241 20.1028 15.1198 19.7092 14.7973C19.3157 14.4747 18.8568 14.2416 18.3642 14.114C17.9592 14.009 17.2742 13.984 16.8732 14.06ZM18.1012 16.135C18.4142 16.278 18.7232 16.585 18.8672 16.896C18.9652 17.106 18.9802 17.189 18.9802 17.5C18.9802 17.81 18.9652 17.893 18.8682 18.1C18.7041 18.4322 18.4358 18.7015 18.1042 18.867C17.8942 18.965 17.8112 18.98 17.5002 18.98C17.1902 18.98 17.1072 18.965 16.9002 18.868C16.5681 18.7038 16.2987 18.4355 16.1332 18.104C16.0352 17.894 16.0202 17.811 16.0202 17.5C16.0202 17.19 16.0352 17.107 16.1322 16.9C16.3192 16.499 16.6622 16.199 17.1002 16.054C17.3572 15.968 17.8172 16.006 18.1012 16.135Z" fill="#10161F"/>
</svg>
