<svg width="202" height="220" viewBox="0 0 202 220" fill="none" xmlns="http://www.w3.org/2000/svg">
<path d="M117.227 141.899C117.077 141.999 116.943 142.083 116.793 142.166C116.709 142.216 116.626 142.249 116.559 142.299L117.294 141.933L117.227 141.899Z" stroke="black"/>
<path d="M83.9049 158.599V176.867L4.17334 130.916V112.649L83.9049 158.599Z" fill="#1AFBFF" stroke="black"/>
<path d="M60.4331 81.7658L60.6334 81.8658C60.6334 81.8658 60.6334 81.7158 60.6668 81.6492L60.4331 81.7658ZM117.227 141.899C117.077 141.999 116.943 142.083 116.793 142.166C116.709 142.216 116.626 142.249 116.559 142.299L117.294 141.933L117.227 141.899Z" stroke="black"/>
<path d="M197.008 193.367L185.857 199.717L152.468 216.383L163.62 210.033L185.506 199.117L197.008 193.367Z" stroke="black"/>
<path d="M132.936 157.182C135.189 154.832 136.875 151.799 138.011 148.116C138.345 147.032 138.628 145.899 138.845 144.749C139.43 141.999 139.697 139.082 139.697 135.966C139.697 132.849 139.446 129.532 138.946 126.282C137.476 116.716 133.854 106.916 128.044 96.9325C122.869 88.0158 116.976 80.6658 110.348 74.8825C107.043 71.9825 103.537 69.4658 99.8477 67.3325C97.8945 66.1991 95.9914 65.2491 94.1383 64.4658C86.459 61.1825 79.6644 60.8325 73.738 63.3825L71.6345 64.4325C70.0986 65.3158 68.713 66.3491 67.4776 67.5491C63.9718 70.9491 61.7014 75.6491 60.6664 81.6491C60.633 81.7158 60.633 81.7991 60.633 81.8658C60.199 84.3658 59.9819 87.0825 59.9819 90.0158C59.9819 93.2658 60.2323 96.5491 60.7666 99.8658C61.3342 103.499 62.2023 107.182 63.4209 110.882C65.3241 116.849 68.0619 122.916 71.6345 129.049C73.2038 131.749 74.8231 134.299 76.5259 136.699C81.4507 143.699 86.9431 149.482 92.9697 154.082C95.19 155.766 97.4771 157.299 99.8477 158.649C103.654 160.849 107.394 162.382 111.133 163.266H111.15C111.15 163.266 111.25 163.299 111.3 163.316C115.09 164.216 118.579 164.282 121.767 163.532L152.468 216.383L163.62 210.033L132.936 157.182ZM122.719 134.432C121.7 137.766 119.864 140.266 117.226 141.899L117.293 141.932L116.559 142.299L115.891 142.632C111.417 144.732 106.075 143.966 99.8477 140.382C93.2034 136.566 87.5608 130.649 82.9031 122.632C82.7528 122.382 82.6026 122.116 82.469 121.866C78.0952 114.132 75.9249 106.566 75.9249 99.1991C75.9249 96.4158 76.2421 93.9658 76.8598 91.8325C76.8765 91.8325 76.8765 91.8158 76.8765 91.8158C76.9099 91.6491 76.9599 91.4825 77.0267 91.3158C77.1436 90.9325 77.2771 90.5658 77.4274 90.2158C78.5793 87.3658 80.399 85.2325 82.9031 83.8158C86.1585 81.9658 89.898 81.6991 94.1216 83.0325C95.9413 83.5825 97.8444 84.4491 99.8477 85.5991C104.188 88.0991 108.111 91.4825 111.584 95.7825C113.437 98.0491 115.173 100.582 116.792 103.349C118.779 106.766 120.332 110.149 121.467 113.499C122.986 117.982 123.754 122.416 123.754 126.782C123.754 129.699 123.403 132.249 122.719 134.432Z" fill="#1AFBFF" stroke="black"/>
<path d="M123.754 126.783C123.754 129.699 123.404 132.249 122.719 134.433C121.701 137.766 119.864 140.266 117.227 141.899C117.077 141.999 116.943 142.083 116.793 142.166C116.709 142.216 116.626 142.249 116.559 142.299L115.891 142.633C111.417 144.733 106.075 143.966 99.8481 140.383C93.2038 136.566 87.5612 130.649 82.9035 122.633C82.7532 122.383 82.603 122.116 82.4694 121.866C78.0955 114.133 75.9253 106.566 75.9253 99.1995C75.9253 96.4161 76.2425 93.9661 76.8602 91.8328C76.8769 91.8328 76.8769 91.8161 76.8769 91.8161C76.9103 91.6495 76.9603 91.4828 77.0271 91.3161C77.144 90.9328 77.2775 90.5661 77.4278 90.2161C78.5797 87.3661 80.3993 85.2328 82.9035 83.8161C86.1588 81.9661 89.8984 81.6995 94.122 83.0328C95.9417 83.5828 97.8448 84.4495 99.8481 85.5995C104.189 88.0995 108.112 91.4828 111.584 95.7828C112.736 99.1495 114.289 102.533 116.292 105.966C117.895 108.733 119.631 111.249 121.467 113.499C122.986 117.983 123.754 122.416 123.754 126.783Z" stroke="black"/>
<path d="M44.0391 89.9491V108.216L37.5618 104.482L29.6487 99.9323L4.17334 85.2491V66.9824L44.0391 89.9491Z" fill="#1AFBFF" stroke="black"/>
<path d="M67.4778 67.5494C63.972 70.9494 61.7016 75.6494 60.6666 81.6494L60.4328 81.7661L44.0391 89.9494L4.17334 66.9828L29.6487 54.2661L37.5618 58.8328L44.0391 62.5661L51.9689 58.6161L67.4778 67.5494Z" fill="#08A2A5" stroke="black"/>
<path d="M44.0391 44.2992V62.5659L37.5618 58.8324L29.6487 54.2659L4.17334 39.5824V21.3159L44.0391 44.2992Z" fill="#1AFBFF" stroke="black"/>
<path d="M77.4276 27.6326L60.4495 36.1158L44.0391 44.2993L4.17334 21.3159L37.5618 4.64917L77.4276 27.6326Z" fill="#08A2A6" stroke="black"/>
<path d="M77.4275 27.6326V45.8992L51.9688 58.6159L44.0391 62.5659V44.2992L60.4495 36.1159L77.4275 27.6326Z" fill="#08A2A6" stroke="black"/>
<path d="M60.7667 99.8661C57.6782 101.399 54.6065 102.933 51.9354 104.266C47.5949 106.433 44.3563 108.049 44.0391 108.216V89.9494L60.4328 81.7661L60.6331 81.8661C60.1991 84.3661 59.982 87.0828 59.982 90.0161C59.982 93.2661 60.2324 96.5494 60.7667 99.8661Z" fill="#08A2A5" stroke="black"/>
<path d="M92.9699 154.083L83.9049 158.599L4.17334 112.649L29.6487 99.9326L37.5618 104.483L44.0391 108.216C44.3563 108.049 47.595 106.433 51.9355 104.266L63.4211 110.883C65.3242 116.849 68.0621 122.916 71.6347 129.049C73.2039 131.749 74.8233 134.299 76.5261 136.699C81.4509 143.699 86.9433 149.483 92.9699 154.083Z" fill="#08A2A5" stroke="black"/>
<path d="M111.134 163.266L83.9053 176.865V158.599L92.9702 154.083C95.1906 155.766 97.4777 157.299 99.8483 158.649C103.655 160.849 107.394 162.383 111.134 163.266Z" fill="#08A2A5" stroke="black"/>
<path d="M173.086 119.299C173.086 123.716 172.535 127.766 171.4 131.449C170.264 135.133 168.578 138.166 166.324 140.516L152.819 147.266H152.802L132.936 157.183C135.19 154.833 136.876 151.799 138.011 148.116C138.345 147.033 138.629 145.899 138.846 144.749C139.43 141.999 139.697 139.083 139.697 135.966C139.697 132.849 139.447 129.533 138.946 126.283C137.477 116.716 133.854 106.916 128.045 96.9326C122.869 88.0159 116.976 80.6659 110.349 74.8826C107.043 71.9826 103.537 69.4659 99.848 67.3326C97.8948 66.1993 95.9917 65.2493 94.1386 64.4659C86.4593 61.1826 79.6647 60.8326 73.7383 63.3826L105.023 47.7659C112.803 43.3326 122.202 44.2993 133.236 50.6659C144.255 57.0159 153.653 66.8826 161.433 80.2659C169.213 93.6493 173.086 106.666 173.086 119.299Z" fill="#08A2A6" stroke="black"/>
<path d="M197.009 193.367L185.506 199.117L163.62 210.033L132.936 157.183L152.802 147.266H152.819L166.324 140.516L197.009 193.367Z" fill="#08A2A6" stroke="black"/>
</svg>
