<svg width="450" height="500" viewBox="0 0 450 500" fill="none" xmlns="http://www.w3.org/2000/svg">
<path d="M241.742 124.587L176.177 30.2808L106.451 50.0232L9.67725 77.4582V364.007L342.629 556.248V269.7L241.742 124.587ZM259.355 352.975L207.339 322.926V382.636L144.919 346.587V286.878L106.403 264.668L92.8542 256.83V185.216L106.403 193.007L144.919 215.216V155.555L189.628 181.394L200.274 187.539L207.339 191.604V251.265L211.403 253.636L241.693 271.103L259.355 281.313V352.975Z" fill="#C9E8F4" stroke="#0B4242"/>
<path d="M259.353 296.942V352.975L207.337 322.926L248.755 302.265L259.353 296.942Z" fill="#44CAFB" stroke="#0B4242"/>
<path d="M248.758 302.265L207.339 322.926V382.636L144.968 346.587L241.742 298.2L248.758 302.265Z" fill="#44CAFB" stroke="#0B4242"/>
<path d="M241.742 271.103V298.2L144.968 346.587V286.877L211.403 253.635L241.742 271.103Z" fill="#44CAFB" stroke="#0B4242"/>
<path d="M211.401 253.635L144.965 286.877L106.449 264.668L92.8525 256.829L189.627 208.442L207.337 218.652V251.265L211.401 253.635Z" fill="#44CAFB" stroke="#0B4242"/>
<path d="M189.627 192.861V208.442L92.8525 256.829V185.216L106.449 193.006L144.965 215.216L189.627 192.861Z" fill="#44CAFB" stroke="#0B4242"/>
<path d="M200.322 187.539L189.629 192.861L144.968 215.216V155.555L189.629 181.394L200.322 187.539Z" fill="#44CAFB" stroke="#0B4242"/>
<path d="M272.951 -18.1064L176.177 30.2806L106.451 50.023L9.67725 77.458L106.451 29.0709L272.951 -18.1064Z" fill="#C9E8F4" stroke="#0B4242"/>
<path d="M439.354 221.313V507.861C424.644 510.378 342.58 556.248 342.58 556.248V269.7L356.128 262.926L439.354 221.313Z" fill="#44CAFB" stroke="#0B4242"/>
<path d="M439.356 221.313L356.13 262.926L342.582 269.7L241.743 124.587L176.178 30.2806L272.952 -18.1064L439.356 221.313Z" fill="#44CAFB" stroke="#0B4242"/>
</svg>
